<svg xmlns="http://www.w3.org/2000/svg" width="22.557" height="20.837" viewBox="0 0 22.557 20.837">
  <g id="noun_back_2374016" transform="translate(-4.693 -5.543)">
    <g id="Back">
      <path id="Caminho_19" data-name="Caminho 19" d="M19.22,26.13H6a1,1,0,0,1,0-2H19.22A5.78,5.78,0,0,0,25,18.35v-.44a5.79,5.79,0,0,0-5.78-5.78H6a1,1,0,0,1,0-2H19.22A7.79,7.79,0,0,1,27,17.91v.44A7.79,7.79,0,0,1,19.22,26.13Z" stroke="#000" stroke-width="0.5"/>
      <path id="Caminho_20" data-name="Caminho 20" d="M10,16.44a1,1,0,0,1-.73-.32l-4-4.29a1,1,0,0,1,0-1.36l4-4.28a1,1,0,1,1,1.46,1.36L7.4,11.15l3.33,3.61A1,1,0,0,1,10,16.44Z" stroke="#000" stroke-width="0.5"/>
    </g>
  </g>
</svg>
