<svg width="175" height="245" viewBox="0 0 175 245" fill="none" xmlns="http://www.w3.org/2000/svg">
<mask id="path-1-inside-1_15_278" fill="white">
<path d="M-39.8248 5.74855L169.752 215.325C180.637 226.211 172.931 244.841 157.539 244.821L-52.0565 244.821C-61.6155 244.821 -69.3407 237.096 -69.3407 227.537L-69.3407 17.9801C-69.3407 2.56868 -50.7299 -5.11749 -39.8443 5.76807"/>
</mask>
<path d="M157.539 244.821L157.539 243.821L157.541 243.821L157.539 244.821ZM-69.3407 227.537H-70.3407H-69.3407ZM-69.3407 17.9801L-68.3407 17.9801L-68.3407 17.9801L-69.3407 17.9801ZM-39.1177 5.04144L170.459 214.618L169.044 216.032L-40.5319 6.45565L-39.1177 5.04144ZM170.459 214.618C181.972 226.131 173.825 245.842 157.538 245.821L157.541 243.821C172.038 243.84 179.302 226.29 169.044 216.032L170.459 214.618ZM157.539 245.821L-52.0565 245.821V243.821L157.539 243.821L157.539 245.821ZM-52.0565 245.821C-62.1678 245.821 -70.3407 237.648 -70.3407 227.537L-68.3407 227.537C-68.3407 236.544 -61.0632 243.821 -52.0565 243.821V245.821ZM-70.3407 227.537L-70.3407 17.9801L-68.3407 17.9801L-68.3407 227.537H-70.3407ZM-70.3407 17.9801C-70.3407 1.67602 -50.6515 -6.45332 -39.1372 5.06097L-40.5515 6.47518C-50.8083 -3.78166 -68.3407 3.46134 -68.3407 17.9801L-70.3407 17.9801Z" fill="#F7941E" mask="url(#path-1-inside-1_15_278)"/>
</svg>
