<svg width="22" height="25" viewBox="0 0 22 25" fill="none" xmlns="http://www.w3.org/2000/svg">
<path d="M14.3546 1.38542L3.20977 4.37168C2.18392 4.64655 1.57513 5.70101 1.85 6.72686L5.83168 21.5867C6.10656 22.6125 7.16101 23.2213 8.18686 22.9464L19.3317 19.9602C20.3576 19.6853 20.9664 18.6309 20.6915 17.605L16.7098 2.74519C16.4349 1.71933 15.3805 1.11054 14.3546 1.38542Z" stroke="#231F20" stroke-width="2" stroke-linecap="round" stroke-linejoin="round"/>
<path d="M6.06268 7.58896L13.4926 5.59812M15.4834 13.028L16.4788 16.743M14.488 9.31307L14.4973 9.31059M10.7731 10.3085L10.7823 10.306M7.0581 11.3039L7.06739 11.3014M11.7685 14.0234L11.7778 14.021M8.05352 15.0189L8.06281 15.0164M12.7639 17.7384L12.7732 17.7359M9.04894 18.7338L9.05823 18.7313" stroke="#231F20" stroke-width="2" stroke-linecap="round" stroke-linejoin="round"/>
</svg>
