<svg width="146" height="124" viewBox="0 0 146 124" fill="none" xmlns="http://www.w3.org/2000/svg">
<path d="M146 56.7229C146.005 50.8571 144.552 45.0809 141.771 39.9074C138.99 34.7339 134.966 30.3231 130.057 27.067C125.148 23.8109 119.505 21.8101 113.631 21.2426C107.757 20.675 101.833 21.5581 96.3845 23.8135C90.9363 26.0689 86.1329 29.6267 82.401 34.1709C78.6691 38.7151 76.1242 44.105 74.9924 49.8619C73.8606 55.6188 74.1769 61.5643 75.9132 67.1705C77.6496 72.7766 80.7522 77.8698 84.9454 81.9975V120.041C84.9452 120.716 85.1185 121.379 85.4487 121.968C85.779 122.558 86.2553 123.053 86.8324 123.408C87.4095 123.763 88.0683 123.965 88.7462 123.996C89.4241 124.027 90.0986 123.885 90.7058 123.583L110.164 113.914L129.621 123.583C130.174 123.857 130.783 123.999 131.4 123.999C132.139 124 132.864 123.794 133.49 123.405C134.068 123.051 134.545 122.556 134.876 121.968C135.207 121.379 135.381 120.716 135.382 120.041V81.9975C138.747 78.6933 141.419 74.7575 143.242 70.4188C145.065 66.08 146.002 61.4246 146 56.7229ZM82.2909 56.7229C82.2909 51.2439 83.9256 45.8881 86.9883 41.3325C90.051 36.777 94.4041 33.2264 99.4972 31.1297C104.59 29.033 110.195 28.4844 115.601 29.5533C121.008 30.6222 125.975 33.2605 129.873 37.1347C133.771 41.0089 136.425 45.9449 137.501 51.3185C138.576 56.6921 138.024 62.2621 135.915 67.3239C133.805 72.3858 130.233 76.7122 125.649 79.7561C121.065 82.8 115.676 84.4247 110.164 84.4247C102.771 84.4247 95.6818 81.5061 90.4546 76.311C85.2275 71.1159 82.2909 64.0698 82.2909 56.7229ZM127.418 113.637L111.942 105.946C111.39 105.672 110.781 105.53 110.164 105.53C109.546 105.53 108.937 105.672 108.385 105.946L92.9091 113.637V87.9138C98.1938 90.8083 104.13 92.3262 110.164 92.3262C116.198 92.3262 122.133 90.8083 127.418 87.9138V113.637ZM71.6727 98.9352C71.6727 99.9848 71.2532 100.991 70.5065 101.734C69.7597 102.476 68.7469 102.893 67.6909 102.893H9.29091C6.82681 102.893 4.46363 101.92 2.72124 100.188C0.978861 98.4564 0 96.1077 0 93.6587V9.23395C0 6.78496 0.978861 4.43626 2.72124 2.70456C4.46363 0.972861 6.82681 0 9.29091 0H126.091C128.555 0 130.918 0.972861 132.661 2.70456C134.403 4.43626 135.382 6.78496 135.382 9.23395C135.382 10.2835 134.962 11.2901 134.216 12.0323C133.469 12.7744 132.456 13.1914 131.4 13.1914C130.344 13.1914 129.331 12.7744 128.584 12.0323C127.838 11.2901 127.418 10.2835 127.418 9.23395C127.418 8.8841 127.278 8.54857 127.029 8.30118C126.781 8.0538 126.443 7.91482 126.091 7.91482H9.29091C8.93889 7.91482 8.6013 8.0538 8.35238 8.30118C8.10347 8.54857 7.96364 8.8841 7.96364 9.23395V93.6587C7.96364 94.0085 8.10347 94.3441 8.35238 94.5914C8.6013 94.8388 8.93889 94.9778 9.29091 94.9778H67.6909C68.7469 94.9778 69.7597 95.3947 70.5065 96.1369C71.2532 96.8791 71.6727 97.8857 71.6727 98.9352ZM61.0545 61.9994C61.0545 63.049 60.635 64.0556 59.8883 64.7977C59.1416 65.5399 58.1288 65.9568 57.0727 65.9568H30.5273C29.4712 65.9568 28.4584 65.5399 27.7117 64.7977C26.965 64.0556 26.5455 63.049 26.5455 61.9994C26.5455 60.9498 26.965 59.9432 27.7117 59.2011C28.4584 58.4589 29.4712 58.042 30.5273 58.042H57.0727C58.1288 58.042 59.1416 58.4589 59.8883 59.2011C60.635 59.9432 61.0545 60.9498 61.0545 61.9994ZM61.0545 40.8932C61.0545 41.9428 60.635 42.9494 59.8883 43.6915C59.1416 44.4337 58.1288 44.8506 57.0727 44.8506H30.5273C29.4712 44.8506 28.4584 44.4337 27.7117 43.6915C26.965 42.9494 26.5455 41.9428 26.5455 40.8932C26.5455 39.8437 26.965 38.8371 27.7117 38.0949C28.4584 37.3528 29.4712 36.9358 30.5273 36.9358H57.0727C58.1288 36.9358 59.1416 37.3528 59.8883 38.0949C60.635 38.8371 61.0545 39.8437 61.0545 40.8932Z" fill="#D1D1D1"/>
</svg>
