<svg xmlns="http://www.w3.org/2000/svg" width="17.999" height="18" viewBox="0 0 17.999 18"><path d="M17.8,0H1.2A.7.7,0,0,0,.5.7,6.867,6.867,0,0,0,2.8,5.831L5.882,8.568a2.505,2.505,0,0,1,.84,1.871V17.3a.7.7,0,0,0,1.093.585l4.148-2.765a.7.7,0,0,0,.313-.585V10.439a2.505,2.505,0,0,1,.84-1.871L16.2,5.831A6.867,6.867,0,0,0,18.5.7a.7.7,0,0,0-.7-.7ZM15.262,4.78,12.183,7.517a3.913,3.913,0,0,0-1.312,2.922v3.715L8.129,15.982V10.439A3.913,3.913,0,0,0,6.816,7.517L3.737,4.78A5.462,5.462,0,0,1,1.952,1.406h15.1A5.46,5.46,0,0,1,15.262,4.78Zm0,0" transform="translate(-0.5 0)"/></svg>