<svg width="192" height="195" viewBox="0 0 192 195" fill="none" xmlns="http://www.w3.org/2000/svg">
<g clip-path="url(#clip0_227_788)">
<path d="M168.084 99.5033H24.7988V104.147H168.084V99.5033Z" fill="#B8ADA6"/>
<path d="M24.7988 76.753V94.8593H47.9097V58.1753L24.7988 76.753Z" fill="#FBF0F0"/>
<path d="M94.1291 21.0218L53.7402 53.4881L94.1291 91.7965V21.0218Z" fill="#FBF0F0"/>
<path d="M52.5312 94.8593H90.6251L52.5312 58.7255V94.8593Z" fill="#FBF0F0"/>
<path d="M172.705 180.777C172.705 182.056 171.666 183.1 170.393 183.1H22.4864C21.2136 183.1 20.1745 182.058 20.1745 180.777V80.4674L15.5527 84.1818V187.744H177.327V84.1837L172.705 80.4693V180.777Z" fill="#B8ADA6"/>
<path d="M140.352 58.7255L102.258 94.8593H140.352V58.7255Z" fill="#FBF0F0"/>
<path d="M98.752 91.7965L139.141 53.4881L98.752 21.0218V91.7965Z" fill="#FBF0F0"/>
<path d="M168.084 108.793H24.7988V178.456H168.084V108.793Z" fill="#F0E8DF"/>
<path d="M6.30859 79.72V85.6615L94.9955 14.3742C95.4197 14.0343 95.9262 13.8671 96.4402 13.8671C96.9541 13.8671 97.4606 14.0343 97.8848 14.3742L186.572 85.6615V79.72L96.4402 7.27209L6.30859 79.72Z" fill="#B8ADA6"/>
<path d="M168.084 76.753L144.973 58.1753V94.8593H168.084V76.753Z" fill="#FBF0F0"/>
<path d="M97.8855 2.48356C97.0371 1.80378 95.8447 1.80378 94.9962 2.48356L2.55467 76.7905C2.00334 77.23 1.6875 77.8966 1.6875 78.6046V90.4971C1.6875 92.4406 3.93205 93.5279 5.44213 92.3111L10.9311 87.9V190.067C10.9311 191.346 11.9702 192.39 13.2429 192.39H179.639C180.912 192.39 181.951 191.346 181.951 190.067V87.8981L187.44 92.3092C188.952 93.5242 191.194 92.4388 191.194 90.4952V78.6027C191.194 77.8947 190.878 77.2281 190.327 76.7887L97.8855 2.48356ZM177.329 187.744H15.5529V84.1837L20.1747 80.4693V180.777C20.1747 182.056 21.2138 183.1 22.4865 183.1H170.395C171.668 183.1 172.707 182.058 172.707 180.777V80.4674L177.329 84.1818V187.744ZM168.085 99.5033V104.147H24.7984V99.5033H168.083H168.085ZM24.8002 94.8593V76.753L47.9111 58.1753V94.8593H24.8002ZM90.6267 94.8593H52.5329V58.7255L90.6267 94.8593ZM53.7421 53.4882L94.129 21.0218V91.7965L53.7402 53.4882H53.7421ZM98.7527 91.7965V21.0218L139.142 53.4882L98.7527 91.7965ZM140.353 58.7255V94.8593H102.259L140.353 58.7255ZM144.974 94.8593V58.1753L168.085 76.753V94.8593H144.974ZM168.085 108.791V178.454H24.7984V108.791H168.083H168.085ZM186.574 85.6616L97.8855 14.3742C97.4613 14.0343 96.9548 13.8672 96.4409 13.8672C95.9269 13.8672 95.4205 14.0343 94.9962 14.3742L6.3093 85.6616V79.72L96.4409 7.27211L186.572 79.72V85.6616H186.574Z" fill="#423D38"/>
<path d="M98.8079 0.556885H0.193359V194.557H98.8079V0.556885Z" fill="white"/>
</g>
<defs>
<clipPath id="clip0_227_788">
<rect width="191" height="194" fill="white" transform="translate(0.193359 0.556885)"/>
</clipPath>
</defs>
</svg>
