<svg width="182" height="182" viewBox="0 0 182 182" fill="none" xmlns="http://www.w3.org/2000/svg">
<g clip-path="url(#clip0_227_819)">
<path d="M159.466 92.765H22.6133V97.1793H159.466V92.765Z" fill="#B8ADA6"/>
<path d="M22.6133 71.1396V88.3506H44.6867V53.4805L22.6133 71.1396Z" fill="#FBF0F0"/>
<path d="M88.8317 18.164L50.2559 49.025L88.8317 85.4392V18.164Z" fill="#FBF0F0"/>
<path d="M49.0996 88.3506H85.4835L49.0996 54.0035V88.3506Z" fill="#FBF0F0"/>
<path d="M163.879 170.02C163.879 171.236 162.887 172.228 161.671 172.228H20.4036C19.188 172.228 18.1956 171.238 18.1956 170.02V74.6703L13.7812 78.201V176.643H168.293V78.2028L163.879 74.6721V170.02Z" fill="#B8ADA6"/>
<path d="M132.978 54.0035L96.5938 88.3506H132.978V54.0035Z" fill="#FBF0F0"/>
<path d="M93.248 85.4392L131.824 49.025L93.248 18.164V85.4392Z" fill="#FBF0F0"/>
<path d="M159.466 101.594H22.6133V167.812H159.466V101.594Z" fill="#F0E8DF"/>
<path d="M4.95312 73.9599V79.6076L89.659 11.8451C90.0642 11.522 90.5479 11.3631 91.0388 11.3631C91.5297 11.3631 92.0134 11.522 92.4186 11.8451L177.124 79.6076V73.9599L91.0388 5.09418L4.95312 73.9599Z" fill="#B8ADA6"/>
<path d="M159.466 71.1396L137.393 53.4805V88.3506H159.466V71.1396Z" fill="#FBF0F0"/>
<path d="M92.4189 0.542247C91.6085 -0.103926 90.4696 -0.103926 89.6592 0.542247L1.36731 71.1751C0.840729 71.5928 0.539062 72.2265 0.539062 72.8994V84.2039C0.539062 86.0514 2.68286 87.0849 4.12515 85.9282L9.36772 81.7352V178.849C9.36772 180.064 10.3602 181.057 11.5758 181.057H170.502C171.718 181.057 172.71 180.064 172.71 178.849V81.7334L177.953 85.9264C179.397 87.0813 181.539 86.0496 181.539 84.2021V72.8976C181.539 72.2247 181.237 71.591 180.711 71.1733L92.4189 0.542247ZM168.296 176.642H13.7838V78.2027L18.1982 74.6719V170.02C18.1982 171.236 19.1906 172.228 20.4062 172.228H161.674C162.889 172.228 163.882 171.237 163.882 170.02V74.6701L168.296 78.2009V176.642ZM159.467 92.7648V97.1791H22.6125V92.7648H159.466H159.467ZM22.6143 88.3504V71.1394L44.6877 53.4803V88.3504H22.6125H22.6143ZM85.4859 88.3504H49.102V54.0033L85.4859 88.3504ZM50.2569 49.0249L88.831 18.1639V85.4391L50.2552 49.0249H50.2569ZM93.2471 85.4391V18.1639L131.823 49.0249L93.2471 85.4391ZM132.98 54.0033V88.3504H96.5958L132.98 54.0033ZM137.394 88.3504V53.4803L159.467 71.1394V88.3504H137.394ZM159.467 101.593V167.812H22.6125V101.593H159.466H159.467ZM177.127 79.6075L92.4189 11.8449C92.0137 11.5218 91.5299 11.363 91.0391 11.363C90.5482 11.363 90.0644 11.5218 89.6592 11.8449L4.95339 79.6075V73.9597L91.0391 5.09402L177.125 73.9597V79.6075H177.127Z" fill="#423D38"/>
</g>
<defs>
<clipPath id="clip0_227_819">
<rect width="181" height="181" fill="white" transform="translate(0.539062 0.0568848)"/>
</clipPath>
</defs>
</svg>
