<svg width="134" height="112" viewBox="0 0 134 112" fill="none" xmlns="http://www.w3.org/2000/svg">
<path d="M124.804 0H9.19608C6.75713 0 4.41807 0.960463 2.69347 2.6701C0.96887 4.37973 0 6.69849 0 9.11628V102.884C0 105.302 0.96887 107.62 2.69347 109.33C4.41807 111.04 6.75713 112 9.19608 112H124.804C127.243 112 129.582 111.04 131.307 109.33C133.031 107.62 134 105.302 134 102.884V9.11628C134 6.69849 133.031 4.37973 131.307 2.6701C129.582 0.960463 127.243 0 124.804 0ZM9.19608 7.81395H124.804C125.152 7.81395 125.486 7.95116 125.733 8.19539C125.979 8.43963 126.118 8.77088 126.118 9.11628V79.1619L106.76 59.9721C105.906 59.1255 104.892 58.4539 103.776 57.9957C102.661 57.5375 101.465 57.3017 100.257 57.3017C99.0492 57.3017 97.8533 57.5375 96.7375 57.9957C95.6218 58.4539 94.608 59.1255 93.754 59.9721L79.684 73.92L49.8559 44.3442C49.0019 43.4976 47.9881 42.826 46.8723 42.3678C45.7566 41.9096 44.5607 41.6738 43.3529 41.6738C42.1452 41.6738 40.9493 41.9096 39.8335 42.3678C38.7178 42.826 37.7039 43.4976 36.85 44.3442L7.88235 73.0605V9.11628C7.88235 8.77088 8.02076 8.43963 8.26713 8.19539C8.5135 7.95116 8.84766 7.81395 9.19608 7.81395ZM7.88235 102.884V84.1107L42.4202 49.8726C42.5423 49.7505 42.6876 49.6536 42.8477 49.5875C43.0078 49.5214 43.1795 49.4873 43.3529 49.4873C43.5264 49.4873 43.6981 49.5214 43.8582 49.5875C44.0183 49.6536 44.1636 49.7505 44.2857 49.8726L99.0746 104.186H9.19608C8.84766 104.186 8.5135 104.049 8.26713 103.805C8.02076 103.56 7.88235 103.229 7.88235 102.884ZM124.804 104.186H110.222L85.2608 79.4419L99.3242 65.494C99.4462 65.3729 99.5911 65.2768 99.7506 65.2113C99.9101 65.1457 100.081 65.112 100.254 65.112C100.426 65.112 100.597 65.1457 100.757 65.2113C100.916 65.2768 101.061 65.3729 101.183 65.494L126.144 90.2381V102.884C126.144 103.057 126.109 103.228 126.041 103.388C125.974 103.548 125.875 103.693 125.75 103.814C125.625 103.935 125.477 104.031 125.315 104.094C125.152 104.158 124.979 104.19 124.804 104.186ZM78.8235 37.7674C78.8235 36.4796 79.2088 35.2206 79.9305 34.1498C80.6523 33.0789 81.6782 32.2443 82.8785 31.7515C84.0787 31.2586 85.3994 31.1297 86.6736 31.3809C87.9478 31.6322 89.1182 32.2524 90.0369 33.163C90.9555 34.0737 91.5811 35.234 91.8346 36.4971C92.088 37.7602 91.9579 39.0695 91.4608 40.2593C90.9636 41.4492 90.1217 42.4662 89.0415 43.1817C87.9613 43.8972 86.6913 44.2791 85.3922 44.2791C83.65 44.2791 81.9793 43.593 80.7474 42.3719C79.5156 41.1507 78.8235 39.4944 78.8235 37.7674Z" fill="#D1D1D1"/>
</svg>
