<svg xmlns="http://www.w3.org/2000/svg" width="17.27" height="17.27" viewBox="0 0 17.27 17.27"><path d="M8.635,1.556c2.306,0,2.579.009,3.49.05,2.34.106,3.433,1.217,3.54,3.54.042.91.05,1.184.05,3.489s-.009,2.579-.05,3.489c-.107,2.321-1.2,3.433-3.54,3.54-.911.042-1.183.05-3.49.05s-2.579-.009-3.489-.05c-2.346-.107-3.433-1.223-3.54-3.54-.042-.91-.05-1.183-.05-3.489s.009-2.578.05-3.489c.107-2.322,1.2-3.433,3.54-3.54.911-.041,1.184-.05,3.489-.05ZM8.635,0C6.29,0,6,.01,5.075.052,1.939.2.2,1.936.053,5.074.01,6,0,6.29,0,8.635s.01,2.639.052,3.56c.144,3.136,1.884,4.879,5.023,5.023.922.042,1.215.052,3.56.052s2.639-.01,3.56-.052c3.133-.144,4.88-1.884,5.022-5.023.042-.921.053-1.215.053-3.56S17.26,6,17.218,5.075C17.077,1.942,15.335.2,12.2.053,11.274.01,10.98,0,8.635,0Zm0,4.2a4.434,4.434,0,1,0,4.434,4.434A4.434,4.434,0,0,0,8.635,4.2Zm0,7.312a2.878,2.878,0,1,1,2.878-2.878A2.878,2.878,0,0,1,8.635,11.513Zm4.61-8.523A1.036,1.036,0,1,0,14.28,4.026,1.037,1.037,0,0,0,13.244,2.99Z" fill="#fff"/></svg>