<svg width="126" height="145" viewBox="0 0 126 145" fill="none" xmlns="http://www.w3.org/2000/svg">
<path d="M14.5385 62.8333V58H9.69231V62.8333H14.5385ZM53.3077 62.8333V58H48.4615V62.8333H53.3077ZM53.3077 101.5H48.4615V106.333H53.3077V101.5ZM121.154 33.8333H126V31.8323L124.585 30.4113L121.154 33.8333ZM92.0769 4.83333L95.508 1.41133L94.0832 0H92.0769V4.83333ZM14.5385 67.6667H24.2308V58H14.5385V67.6667ZM19.3846 106.333V82.1667H9.69231V106.333H19.3846ZM19.3846 82.1667V62.8333H9.69231V82.1667H19.3846ZM24.2308 77.3333H14.5385V87H24.2308V77.3333ZM29.0769 72.5C29.0769 73.7819 28.5663 75.0113 27.6575 75.9177C26.7487 76.8241 25.516 77.3333 24.2308 77.3333V87C28.0866 87 31.7845 85.4723 34.511 82.7531C37.2375 80.0338 38.7692 76.3456 38.7692 72.5H29.0769ZM24.2308 67.6667C25.516 67.6667 26.7487 68.1759 27.6575 69.0823C28.5663 69.9887 29.0769 71.2181 29.0769 72.5H38.7692C38.7692 68.6544 37.2375 64.9662 34.511 62.247C31.7845 59.5277 28.0866 58 24.2308 58V67.6667ZM48.4615 62.8333V101.5H58.1538V62.8333H48.4615ZM53.3077 106.333H63V96.6667H53.3077V106.333ZM77.5385 91.8333V72.5H67.8462V91.8333H77.5385ZM63 58H53.3077V67.6667H63V58ZM77.5385 72.5C77.5385 68.6544 76.0067 64.9662 73.2802 62.247C70.5538 59.5277 66.8558 58 63 58V67.6667C64.2853 67.6667 65.5179 68.1759 66.4267 69.0823C67.3356 69.9887 67.8462 71.2181 67.8462 72.5H77.5385ZM63 106.333C66.8558 106.333 70.5538 104.806 73.2802 102.086C76.0067 99.3671 77.5385 95.679 77.5385 91.8333H67.8462C67.8462 93.1152 67.3356 94.3446 66.4267 95.251C65.5179 96.1574 64.2853 96.6667 63 96.6667V106.333ZM87.2308 58V106.333H96.9231V58H87.2308ZM92.0769 67.6667H116.308V58H92.0769V67.6667ZM92.0769 87H106.615V77.3333H92.0769V87ZM9.69231 48.3333V14.5H0V48.3333H9.69231ZM116.308 33.8333V48.3333H126V33.8333H116.308ZM14.5385 9.66667H92.0769V0H14.5385V9.66667ZM88.6458 8.25533L117.723 37.2553L124.585 30.4113L95.508 1.41133L88.6458 8.25533ZM9.69231 14.5C9.69231 13.2181 10.2029 11.9887 11.1117 11.0823C12.0205 10.1759 13.2532 9.66667 14.5385 9.66667V0C10.6826 0 6.98471 1.52767 4.25822 4.24695C1.53173 6.96623 0 10.6544 0 14.5H9.69231ZM0 116V130.5H9.69231V116H0ZM14.5385 145H111.462V135.333H14.5385V145ZM126 130.5V116H116.308V130.5H126ZM111.462 145C115.317 145 119.015 143.472 121.742 140.753C124.468 138.034 126 134.346 126 130.5H116.308C116.308 131.782 115.797 133.011 114.888 133.918C113.979 134.824 112.747 135.333 111.462 135.333V145ZM0 130.5C0 134.346 1.53173 138.034 4.25822 140.753C6.98471 143.472 10.6826 145 14.5385 145V135.333C13.2532 135.333 12.0205 134.824 11.1117 133.918C10.2029 133.011 9.69231 131.782 9.69231 130.5H0Z" fill="#D1D1D1"/>
</svg>
