<svg width="44" height="44" viewBox="0 0 44 44" fill="none" xmlns="http://www.w3.org/2000/svg">
<path d="M42.0542 32.0488V38.0907C42.0565 38.6516 41.9416 39.2068 41.7169 39.7207C41.4922 40.2346 41.1626 40.6959 40.7493 41.0751C40.336 41.4543 39.8481 41.743 39.3167 41.9227C38.7854 42.1024 38.2224 42.1691 37.6638 42.1186C31.4664 41.4453 25.5134 39.3276 20.2831 35.9357C15.417 32.8436 11.2914 28.718 8.19926 23.8519C4.79559 18.5978 2.67742 12.6159 2.01635 6.39067C1.96602 5.83374 2.03221 5.27243 2.2107 4.74248C2.38919 4.21253 2.67607 3.72555 3.05307 3.31255C3.43008 2.89954 3.88895 2.56957 4.40048 2.34362C4.912 2.11768 5.46496 2.00072 6.02416 2.0002H12.0661C13.0435 1.99058 13.991 2.33669 14.7321 2.97402C15.4732 3.61135 15.9573 4.49641 16.0941 5.46424C16.3491 7.39779 16.822 9.29629 17.5038 11.1235C17.7748 11.8444 17.8335 12.6278 17.6728 13.3809C17.5122 14.1341 17.139 14.8254 16.5975 15.373L14.0398 17.9308C16.9068 22.9729 21.0816 27.1476 26.1237 30.0146L28.6814 27.4569C29.229 26.9154 29.9203 26.5422 30.6735 26.3816C31.4266 26.221 32.2101 26.2796 32.9309 26.5506C34.7581 27.2324 36.6566 27.7054 38.5902 27.9604C39.5685 28.0984 40.462 28.5912 41.1007 29.345C41.7394 30.0988 42.0787 31.0611 42.0542 32.0488Z" stroke="#CB130E" stroke-width="3" stroke-linecap="round" stroke-linejoin="round"/>
</svg>
