<svg width="36" height="44" viewBox="0 0 36 44" fill="none" xmlns="http://www.w3.org/2000/svg">
<path d="M34.3636 18.1818C34.3636 30.7677 18.1818 41.5556 18.1818 41.5556C18.1818 41.5556 2 30.7677 2 18.1818C2 13.8901 3.70487 9.77422 6.73954 6.73954C9.77422 3.70487 13.8901 2 18.1818 2C22.4735 2 26.5894 3.70487 29.6241 6.73954C32.6588 9.77422 34.3636 13.8901 34.3636 18.1818Z" stroke="#CB130E" stroke-width="3" stroke-linecap="round" stroke-linejoin="round"/>
<path d="M18.183 23.5758C21.162 23.5758 23.5769 21.1608 23.5769 18.1818C23.5769 15.2028 21.162 12.7879 18.183 12.7879C15.204 12.7879 12.7891 15.2028 12.7891 18.1818C12.7891 21.1608 15.204 23.5758 18.183 23.5758Z" stroke="#CB130E" stroke-width="3" stroke-linecap="round" stroke-linejoin="round"/>
</svg>
