<svg xmlns="http://www.w3.org/2000/svg" width="17.27" height="17.27" viewBox="0 0 17.27 17.27"><path d="M8.635,0A8.635,8.635,0,0,0,5.488,16.675a8.255,8.255,0,0,1,.03-2.476c.157-.674,1.012-4.292,1.012-4.292a3.119,3.119,0,0,1-.258-1.282c0-1.2.7-2.1,1.562-2.1A1.085,1.085,0,0,1,8.927,7.744a17.361,17.361,0,0,1-.715,2.875A1.254,1.254,0,0,0,9.49,12.179c1.535,0,2.714-1.618,2.714-3.954A3.408,3.408,0,0,0,8.6,4.712,3.737,3.737,0,0,0,4.7,8.459a3.355,3.355,0,0,0,.643,1.97.26.26,0,0,1,.06.248l-.24.979c-.038.158-.125.192-.289.116A3.871,3.871,0,0,1,3.12,8.427C3.12,5.7,5.1,3.2,8.826,3.2a5.068,5.068,0,0,1,5.323,4.987c0,2.976-1.876,5.371-4.481,5.371a2.309,2.309,0,0,1-1.979-.992l-.538,2.053a9.608,9.608,0,0,1-1.074,2.264A8.636,8.636,0,1,0,8.635,0Z" fill="#fff" fill-rule="evenodd"/></svg>