<svg width="16" height="17" viewBox="0 0 16 17" fill="none" xmlns="http://www.w3.org/2000/svg">
<path d="M16 15.3952L11.2277 10.6221C11.9968 9.56522 12.4105 8.29148 12.4092 6.9844C12.4092 3.56325 9.62577 0.779785 6.20462 0.779785C2.78346 0.779785 0 3.56325 0 6.9844C0 10.4056 2.78346 13.189 6.20462 13.189C7.5117 13.1903 8.78544 12.7766 9.84231 12.0075L14.6154 16.7798L16 15.3952ZM6.20462 11.2294C5.36493 11.2295 4.54407 10.9805 3.84586 10.5141C3.14765 10.0476 2.60345 9.38459 2.28208 8.60883C1.96071 7.83307 1.8766 6.97944 2.0404 6.15588C2.2042 5.33232 2.60854 4.57583 3.20229 3.98208C3.79604 3.38832 4.55253 2.98398 5.37609 2.82019C6.19965 2.65639 7.05329 2.74049 7.82905 3.06187C8.60481 3.38324 9.26784 3.92744 9.7343 4.62565C10.2008 5.32386 10.4497 6.14471 10.4496 6.9844C10.4483 8.10984 10.0006 9.1888 9.20482 9.98461C8.40902 10.7804 7.33005 11.2281 6.20462 11.2294Z" fill="white"/>
</svg>
