<svg xmlns="http://www.w3.org/2000/svg" width="24" height="24" viewBox="0 0 24 24">
  <g id="Grupo_45" data-name="Grupo 45" transform="translate(0.395 0.48)">
    <path id="Caminho_122" data-name="Caminho 122" d="M9.513,102.641a11.948,11.948,0,0,0-1.719,3.74h5.459Z" transform="translate(-7.794 -97.921)" fill="#29337a"/>
    <path id="Caminho_123" data-name="Caminho 123" d="M99.488,9.48A11.957,11.957,0,0,0,95.7,11.363l3.791,3.791Z" transform="translate(-91.243 -9.48)" fill="#29337a"/>
    <path id="Caminho_124" data-name="Caminho 124" d="M101.261,365.251a11.94,11.94,0,0,0,3.509,1.683v-5.191Z" transform="translate(-96.525 -343.895)" fill="#29337a"/>
    <path id="Caminho_125" data-name="Caminho 125" d="M10.512,306.771a11.955,11.955,0,0,0,1.782,3.538l3.538-3.538Z" transform="translate(-10.374 -291.708)" fill="#29337a"/>
  </g>
  <g id="Grupo_46" data-name="Grupo 46" transform="translate(0.175 0.228)">
    <path id="Caminho_126" data-name="Caminho 126" d="M5.585,97.144q-.1.138-.2.279l3.74,3.74H3.668c-.088.337-.161.68-.22,1.028h7.183Z" transform="translate(-3.448 -92.45)" fill="#fff"/>
    <path id="Caminho_127" data-name="Caminho 127" d="M95.767,336.865c.091.068.185.133.278.2l3.509-3.508v5.191c.337.1.679.184,1.028.252V332.05Z" transform="translate(-91.089 -315.454)" fill="#fff"/>
    <path id="Caminho_128" data-name="Caminho 128" d="M5.25,286.487c.074.348.162.691.266,1.028h5.32L7.3,291.053a12.083,12.083,0,0,0,1.275,1.475l6.041-6.041Z" transform="translate(-5.159 -272.2)" fill="#fff"/>
    <path id="Caminho_129" data-name="Caminho 129" d="M72.062,4.758v5.674l-3.791-3.79a12.068,12.068,0,0,0-1.464,1.287L73.09,14.21v-9.7C72.742,4.575,72.4,4.66,72.062,4.758Z" transform="translate(-63.598 -4.506)" fill="#fff"/>
  </g>
  <g id="Grupo_47" data-name="Grupo 47" transform="translate(8.603 8.905)">
    <path id="Caminho_130" data-name="Caminho 130" d="M169.836,306.056l-.036.036h.036Z" transform="translate(-169.8 -299.454)" fill="#d32030"/>
    <path id="Caminho_131" data-name="Caminho 131" d="M190.084,285.809h.036v-.036Z" transform="translate(-189.056 -280.199)" fill="#d32030"/>
    <path id="Caminho_132" data-name="Caminho 132" d="M280.58,196.737h-.035v.035Z" transform="translate(-274.934 -195.674)" fill="#d32030"/>
    <path id="Caminho_133" data-name="Caminho 133" d="M170.546,175.79l-.035-.036v.036Z" transform="translate(-170.475 -175.754)" fill="#d32030"/>
    <path id="Caminho_134" data-name="Caminho 134" d="M190.794,196.037v.035h.035Z" transform="translate(-189.73 -195.009)" fill="#d32030"/>
  </g>
  <g id="Grupo_48" data-name="Grupo 48" transform="translate(15.242 0.447)">
    <path id="Caminho_135" data-name="Caminho 135" d="M300.825,376.323v2.69a11.931,11.931,0,0,0,3.557-1.667l-2.915-2.915A9.441,9.441,0,0,1,300.825,376.323Z" transform="translate(-300.825 -355.907)" fill="#252f6c"/>
    <path id="Caminho_136" data-name="Caminho 136" d="M301.482,13.867l3.182-3.182a11.954,11.954,0,0,0-3.84-1.867v2.763A10.64,10.64,0,0,1,301.482,13.867Z" transform="translate(-300.824 -8.818)" fill="#252f6c"/>
    <path id="Caminho_137" data-name="Caminho 137" d="M359.424,310.379a11.967,11.967,0,0,0,1.831-3.608h-5.44Z" transform="translate(-353.03 -291.675)" fill="#252f6c"/>
    <path id="Caminho_138" data-name="Caminho 138" d="M361.367,105.075a11.946,11.946,0,0,0-1.768-3.81l-3.81,3.81Z" transform="translate(-353.004 -96.581)" fill="#252f6c"/>
  </g>
  <g id="Grupo_49" data-name="Grupo 49" transform="translate(14.214 0.207)">
    <path id="Caminho_139" data-name="Caminho 139" d="M327.638,286.694l.825.825,3.947,3.947c.09-.112.179-.224.264-.339l-3.608-3.608h5.44q.155-.5.266-1.028h-7.056C327.7,286.637,327.652,286.549,327.638,286.694Z" transform="translate(-325.252 -272.182)" fill="#e7e7e7"/>
    <path id="Caminho_140" data-name="Caminho 140" d="M311.288,49.456l3.577-3.578c-.09-.07-.179-.139-.271-.206l-3.182,3.182C311.446,48.98,311.258,49.327,311.288,49.456Z" transform="translate(-309.727 -43.565)" fill="#e7e7e7"/>
    <path id="Caminho_141" data-name="Caminho 141" d="M281.569,6.869V4.327q-.505-.142-1.028-.24v1.24A6.64,6.64,0,0,1,281.569,6.869Z" transform="translate(-280.541 -4.087)" fill="#e7e7e7"/>
    <path id="Caminho_142" data-name="Caminho 142" d="M321.927,77.907h7.306c-.059-.348-.132-.691-.22-1.028h-5.578l3.81-3.81a12.063,12.063,0,0,0-1.246-1.5l-4.292,4.291C321.823,76.635,321.874,77.087,321.927,77.907Z" transform="translate(-319.621 -68.146)" fill="#e7e7e7"/>
    <path id="Caminho_143" data-name="Caminho 143" d="M310.088,330.744l3.088,3.089a12.038,12.038,0,0,0,1.449-1.175l-4.062-4.062A20.851,20.851,0,0,1,310.088,330.744Z" transform="translate(-308.591 -312.153)" fill="#e7e7e7"/>
    <path id="Caminho_144" data-name="Caminho 144" d="M280.545,413.31v1.382q.522-.1,1.028-.24v-2.69A6.679,6.679,0,0,1,280.545,413.31Z" transform="translate(-280.545 -391.107)" fill="#e7e7e7"/>
  </g>
  <path id="Caminho_145" data-name="Caminho 145" d="M315.724,55.13l4.291-4.291a12,12,0,0,0-1.239-1.106l-3.372,3.372C315.555,53.732,315.623,54.449,315.724,55.13Z" transform="translate(-299.424 -47.213)" fill="#d71f28"/>
  <g id="Grupo_50" data-name="Grupo 50" transform="translate(11.401)">
    <path id="Caminho_146" data-name="Caminho 146" d="M225.019.015q.3-.015.6-.015Q225.317,0,225.019.015Z" transform="translate(-225.019)" fill="#d32030"/>
    <path id="Caminho_147" data-name="Caminho 147" d="M225.624,473.4c-.2,0-.4-.005-.6-.015Q225.324,473.4,225.624,473.4Z" transform="translate(-225.026 -449.396)" fill="#d32030"/>
    <path id="Caminho_148" data-name="Caminho 148" d="M236.836,443.891a12.028,12.028,0,0,0,2.215-.208V442.3C238.42,442.984,237.683,443.891,236.836,443.891Z" transform="translate(-236.237 -419.891)" fill="#d32030"/>
  </g>
  <g id="Grupo_51" data-name="Grupo 51" transform="translate(16.186 9.968)">
    <path id="Caminho_149" data-name="Caminho 149" d="M334.475,196.737h-7.211a32.247,32.247,0,0,1-.035,4.547h7.154a11.973,11.973,0,0,0,.091-4.547Z" transform="translate(-326.836 -196.737)" fill="#d71f28"/>
    <path id="Caminho_150" data-name="Caminho 150" d="M319.87,290.5c-.067.709-.3,1.261-.415,1.93l4.062,4.062a12.117,12.117,0,0,0,1.124-1.221l-3.947-3.947Z" transform="translate(-319.456 -285.749)" fill="#d71f28"/>
  </g>
  <path id="Caminho_151" data-name="Caminho 151" d="M239.051,1.536V.207A12.058,12.058,0,0,0,236.836,0C237.683,0,238.42.853,239.051,1.536Z" transform="translate(-224.836 0)" fill="#d32030"/>
  <g id="Grupo_52" data-name="Grupo 52" transform="translate(15.242 2.618)">
    <path id="Caminho_152" data-name="Caminho 152" d="M300.825,364.8a12.922,12.922,0,0,0,.836-2.217l-.836-.836Z" transform="translate(-300.825 -346.04)" fill="#29337a"/>
    <path id="Caminho_153" data-name="Caminho 153" d="M301.765,54.273a13.5,13.5,0,0,0-.94-2.6v3.535Z" transform="translate(-300.825 -51.677)" fill="#29337a"/>
  </g>
  <g id="Grupo_53" data-name="Grupo 53" transform="translate(14.214 1.076)">
    <path id="Caminho_154" data-name="Caminho 154" d="M324.065,286.923q.02-.217.038-.436h-.474Z" transform="translate(-321.446 -273.048)" fill="#fff"/>
    <path id="Caminho_155" data-name="Caminho 155" d="M281.569,26.322V22.787a6.638,6.638,0,0,0-1.028-1.542v6.582l2.064-2.064c-.031-.129-.064-.255-.1-.381Z" transform="translate(-280.541 -21.245)" fill="#fff"/>
    <path id="Caminho_156" data-name="Caminho 156" d="M281.229,151.661h2.656c-.052-.82-.135-1.628-.25-2.406Z" transform="translate(-281.194 -142.769)" fill="#fff"/>
    <path id="Caminho_157" data-name="Caminho 157" d="M280.545,297.927a6.647,6.647,0,0,0,1.028-1.542v-3.053l.836.836a20.705,20.705,0,0,0,.483-2.141l-2.346-2.346v8.246Z" transform="translate(-280.545 -276.08)" fill="#fff"/>
  </g>
  <path id="Caminho_158" data-name="Caminho 158" d="M14.214,22.923V14.677l2.346,2.346c.115-.669.206-1.363.273-2.072l-.436-.436h.474a32.262,32.262,0,0,0,.035-4.547H14.249l2.406-2.406c-.1-.682-.227-1.341-.377-1.968L14.214,7.659V1.077A2.981,2.981,0,0,0,12,0q-.3,0-.6.015A12.08,12.08,0,0,0,9.667.228v9.7L3.385,3.651A12.116,12.116,0,0,0,2.311,4.922L6.33,8.941,7.358,9.968H.175a11.971,11.971,0,0,0,.091,4.547H9.631L3.59,20.557a12.086,12.086,0,0,0,1.263,1.082l4.815-4.815v6.947a12.09,12.09,0,0,0,1.734.214c.2.01.4.015.6.015A2.981,2.981,0,0,0,14.214,22.923Z" transform="translate(0)" fill="#e51d35"/>
</svg>
