<svg data-name="Grupo 135" xmlns="http://www.w3.org/2000/svg" width="24" height="23.273" viewBox="0 0 24 23.273">
  <g id="brazil" transform="translate(0 0)">
    <ellipse id="Elipse_47" data-name="Elipse 47" cx="12" cy="11.636" rx="12" ry="11.636" transform="translate(0 0)" fill="#6da544"/>
    <path id="Caminho_119" data-name="Caminho 119" d="M54.488,100.174l9.966,7.29-9.966,7.29-9.966-7.29Z" transform="translate(-42.489 -95.828)" fill="#ffda44"/>
    <ellipse id="Elipse_48" data-name="Elipse 48" cx="4.196" cy="4.166" rx="4.196" ry="4.166" transform="translate(7.803 7.47)" fill="#f0f0f0"/>
    <g id="Grupo_44" data-name="Grupo 44" transform="translate(7.805 7.47)">
      <path id="Caminho_120" data-name="Caminho 120" d="M169.082,250.435a7.1,7.1,0,0,0-2.1.315,4.2,4.2,0,0,0,7.632,2.335A7.091,7.091,0,0,0,169.082,250.435Z" transform="translate(-166.985 -246.529)" fill="#0052b4"/>
      <path id="Caminho_121" data-name="Caminho 121" d="M182.15,171.921a4.163,4.163,0,0,0-4.119-4.964,4.2,4.2,0,0,0-3.856,2.522,8.7,8.7,0,0,1,7.975,2.442Z" transform="translate(-173.836 -166.957)" fill="#0052b4"/>
    </g>
  </g>
</svg>
